<svg version="1.1" xmlns="http://www.w3.org/2000/svg" xmlns:xlink="http://www.w3.org/1999/xlink" style="" xml:space="preserve" width="332.39599609375" height="332.39599609375"><rect id="backgroundrect" width="100%" height="100%" x="0" y="0" fill="none" stroke="none"/>
















<g class="currentLayer" style=""><title>Layer 1</title><g id="svg_1" class="selected" stroke="#919191" stroke-opacity="1" fill="#ffffff" fill-opacity="1">
	<path d="M317.055,32.986H15.334C6.883,32.986,0,39.862,0,48.32v186.494c0,8.458,6.877,15.354,15.334,15.354h114.333v34.981H96.107   v14.261h140.176v-14.261h-33.561v-34.988h114.333c8.458,0,15.341-6.89,15.341-15.354V48.32   C332.396,39.862,325.519,32.986,317.055,32.986z M319.542,234.808c0,1.382-1.118,2.5-2.487,2.5H15.334   c-1.369,0-2.481-1.118-2.481-2.5V48.32c0-1.369,1.112-2.481,2.481-2.481h301.721c1.369,0,2.487,1.112,2.487,2.481   C319.542,48.32,319.542,234.808,319.542,234.808z" id="svg_2" stroke="#919191" stroke-opacity="1" fill="#ffffff" fill-opacity="1"/>
</g><g id="svg_3">
</g><g id="svg_4">
</g><g id="svg_5">
</g><g id="svg_6">
</g><g id="svg_7">
</g><g id="svg_8">
</g><g id="svg_9">
</g><g id="svg_10">
</g><g id="svg_11">
</g><g id="svg_12">
</g><g id="svg_13">
</g><g id="svg_14">
</g><g id="svg_15">
</g><g id="svg_16">
</g><g id="svg_17">
</g></g></svg>